<svg xmlns="http://www.w3.org/2000/svg" xmlns:xlink="http://www.w3.org/1999/xlink" width="16" height="16" version="1.1">
<!--background-->
    <rect width="9" height="4" x="3" y="1" fill="#c6c6c6"/>
    <rect width="13" height="7" x="1" y="5" fill="#c6c6c6"/>
    <rect width="7" height="1" x="3" y="12" fill="#c6c6c6"/>
    <rect width="3" height="3" x="12" y="12" fill="#fff"/>
    <rect width="1" height="1" x="12" y="11" fill="#fff"/>
    <rect width="1" height="1" x="11" y="12" fill="#fff"/>
    <rect width="1" height="1" x="11" y="10" fill="#848484"/>
    <rect width="1" height="1" x="10" y="11" fill="#848484"/>
    <rect width="1" height="1" x="6" y="10" fill="#848484"/>
    <rect width="1" height="1" x="7" y="11" fill="#848484"/>
    <rect width="1" height="1" x="7" y="6" fill="#848484"/>
    <rect width="1" height="1" x="6" y="7" fill="#848484"/>
    <rect width="1" height="1" x="6" y="7" fill="#848484"/>
    <rect width="1" height="1" x="11" y="5" fill="#848484"/>
    <rect width="3" height="1" x="11" y="7" fill="#848484"/>
    <rect width="3" height="1" x="10" y="6" fill="#848484"/>
    <rect width="1" height="1" x="13" y="5" fill="#848484"/>
    <rect width="1" height="2" x="12" y="3" fill="#848484"/>
    <rect width="1" height="1" x="11" y="2" fill="#848484"/>
    <rect width="1" height="1" x="6" y="13" fill="#848484"/>
    <rect width="1" height="1" x="8" y="13" fill="#848484"/>
    <rect width="1" height="1" x="7" y="1" fill="#fff"/>
    <rect width="1" height="1" x="5" y="1" fill="#fff"/>
    <rect width="1" height="1" x="4" y="2" fill="#fff"/>
    <rect width="1" height="1" x="3" y="3" fill="#fff"/>
    <rect width="1" height="1" x="1" y="8" fill="#fff"/>
    <rect width="1" height="1" x="2" y="9" fill="#fff"/>
    <rect width="1" height="1" x="3" y="10" fill="#fff"/>
    <rect width="1" height="1" x="4" y="11" fill="#fff"/>
    <rect width="3" height="1" x="7" y="7" fill="#fff"/>
    <rect width="1" height="3" x="7" y="7" fill="#fff"/>
    <rect width="1" height="1" x="8" y="8" fill="#fff"/>
    <rect width="1" height="1" x="10" y="8" fill="#fff"/>
    <rect width="1" height="1" x="9" y="9" fill="#fff"/>
    <rect width="1" height="1" x="8" y="10" fill="#fff"/>
    <rect width="1" height="1" x="10" y="10" fill="#fff"/>
<!--forground-->
    <rect width="5" height="1" x="5" y="0" fill="#000"/>
    <rect width="5" height="1" x="5" y="14" fill="#000"/>
    <rect width="1" height="5" x="0" y="5" fill="#000"/>
    <rect width="1" height="5" x="14" y="5" fill="#000"/>
    <rect width="4" height="1" x="7" y="5" fill="#000"/>
    <rect width="4" height="1" x="7" y="12" fill="#000"/>
    <rect width="1" height="4" x="5" y="7" fill="#000"/>
    <rect width="1" height="4" x="12" y="7" fill="#000"/>
    <rect width="1" height="1" x="6" y="6" fill="#000"/>
    <rect width="1" height="1" x="11" y="6" fill="#000"/>
    <rect width="1" height="1" x="6" y="11" fill="#000"/>
    <rect width="1" height="1" x="11" y="11" fill="#000"/>
    <rect width="2" height="1" x="3" y="1" fill="#000"/>
    <rect width="3" height="1" x="9" y="1" fill="#000"/>
    <rect width="3" height="1" x="6" y="2" fill="#000"/>
    <rect width="2" height="1" x="5" y="3" fill="#000"/>
    <rect width="2" height="1" x="1" y="4" fill="#000"/>
    <rect width="2" height="1" x="1" y="7" fill="#000"/>
    <rect width="2" height="1" x="3" y="13" fill="#000"/>
    <rect width="2" height="1" x="10" y="13" fill="#000"/>
    <rect width="2" height="1" x="13" y="15" fill="#000"/>
    <rect width="1" height="2" x="1" y="10" fill="#000"/>
    <rect width="1" height="2" x="13" y="3" fill="#000"/>
    <rect width="1" height="2" x="13" y="10" fill="#000"/>
    <rect width="1" height="2" x="15" y="13" fill="#000"/>
    <rect width="1" height="1" x="1" y="3" fill="#000"/>
    <rect width="1" height="1" x="2" y="2" fill="#000"/>
    <rect width="1" height="1" x="4" y="4" fill="#000"/>
    <rect width="1" height="1" x="3" y="6" fill="#000"/>
    <rect width="1" height="1" x="12" y="2" fill="#000"/>
    <rect width="1" height="1" x="3" y="8" fill="#000"/>
    <rect width="1" height="1" x="4" y="9" fill="#000"/>
    <rect width="1" height="1" x="2" y="12" fill="#000"/>
    <rect width="1" height="1" x="5" y="12" fill="#000"/>
    <rect width="1" height="1" x="11" y="11" fill="#000"/>
    <rect width="1" height="1" x="12" y="14" fill="#000"/>
    <rect width="1" height="1" x="14" y="12" fill="#000"/>
</svg>
