<svg xmlns="http://www.w3.org/2000/svg" xmlns:xlink="http://www.w3.org/1999/xlink" width="13" height="16" version="1.1" viewBox="">
    <rect width="11" height="3" x="0" y="1" fill="#fff"/>
    <rect width="13" height="11" x="0" y="4" fill="#fff"/>
    <rect width="10" height="1" x="0" y="0" fill="#000"/>
    <rect width="13" height="1" x="0" y="15" fill="#000"/>
    <rect width="14" height="1" x="9" y="3" fill="#000"/>
    <rect width="1" height="12" x="12" y="3" fill="#000"/>
    <rect width="1" height="15" x="0" y="0" fill="#000"/>
    <rect width="1" height="3" x="9" y="1" fill="#000"/>
    <rect width="1" height="1" x="10" y="1" fill="#000"/>
    <rect width="1" height="1" x="11" y="2" fill="#000"/>
    <rect width="1" height="3" x="3" y="6" fill="#848484"/>
    <rect width="1" height="3" x="9" y="8" fill="#848484"/>
    <rect width="2" height="1" x="4" y="5" fill="#848484"/>
    <rect width="2" height="1" x="7" y="11" fill="#848484"/>
    <rect width="1" height="5" x="6" y="3" fill="#848484"/>
    <rect width="1" height="5" x="6" y="9" fill="#848484"/>
    <rect width="1" height="3" x="7" y="4" fill="#848484"/>
    <rect width="1" height="3" x="5" y="10" fill="#848484"/>
    <rect width="1" height="1" x="8" y="5" fill="#848484"/>
    <rect width="1" height="1" x="4" y="11" fill="#848484"/>
</svg>
